# xmcd
#
# Track frame offsets:
#	150
#	12470
#	26372
#	39912
#	55165
#	65052
#	76922
#	83370
#	102012
#	119342
#	133030
#	147095
#	161777
#	177987
#	196042
#	209572
#	219850
#	233967
#	247255
#	264955
#	285842
#	299930
#	316765
#
# Disc length: 4375 seconds
#
# Revision: 3
# Processed by: cddbd v1.5.2PL0 Copyright (c) Steve Scherf et al.
# Submitted via: EasyCDDAExtractor 11.1.0.1
#
DISCID=44111517
DTITLE=Various Artist - Testament Records Sampler
DYEAR=1995
DGENRE=Blues
TTITLE0=JB Hutto And The Hawks - Pet Cream Man
TTITLE1=John Lee Granderson - A Man For The Nation
TTITLE2=The Chicago String Band - Railroad Blues
TTITLE3=Otis Spann - Nobody Knows My Troubles
TTITLE4=Fred McDowell And The Hunter's Gospel Singers - Jesus Is On The Mainli
TTITLE4=ne
TTITLE5=Eddie Taylor - Peach Tree Blues
TTITLE6=Eddie Lee 'Mustright' Jones - I'm Talking 'Bout You
TTITLE7=Dr Isaiah Ross - Cat Squirrel
TTITLE8=Robert Nighthawk - I'm Gettin' Tired
TTITLE9=Jimmy Walker And Erwin Helfer - Going Back To Texas
TTITLE10=Ruby McCoy - Black Mary
TTITLE11=Johnny Shines - So Cold In Vietnam
TTITLE12=Bill Jackson - Titanic Blues
TTITLE13=Johnny Turner And Blues With A Feeling - Don't Start Me To Talking
TTITLE14=Johnny Young - All My Money Gone
TTITLE15=Blind Connie Williams - One Thin Dime
TTITLE16=Fred McDowell - Goin' Down South
TTITLE17=John Wrencher - I'm Goin' To Detroit
TTITLE18=Big Joe Williams - Annie Mae
TTITLE19=Napoleon Strickland Fife And Drum Band - My Babe
TTITLE20=Johnny Shines - Hoodoo Snake Doctor Blues
TTITLE21=Johnny Littlejohn - Dust My Broom
TTITLE22=Billy Boy Arnold - Pleading And Crying
EXTD=YEAR: 1995
EXTT0=
EXTT1=
EXTT2=
EXTT3=
EXTT4=
EXTT5=
EXTT6=
EXTT7=
EXTT8=
EXTT9=
EXTT10=
EXTT11=
EXTT12=
EXTT13=
EXTT14=
EXTT15=
EXTT16=
EXTT17=
EXTT18=
EXTT19=
EXTT20=
EXTT21=
EXTT22=
PLAYORDER=
